<?xml version="1.0" encoding="UTF-8"?>
<svg id="Layer_2" data-name="Layer 2" xmlns="http://www.w3.org/2000/svg" viewBox="0 0 245.65 314.12">
  <defs>
    <style>
      .cls-1 {
        fill: #000000;
      }
    </style>
  </defs>
  <g id="Layer_1-2" data-name="Layer 1">
    <g>
      <path class="cls-1" d="M236.4,167.64H9.24c-5.1,0-9.24,4.14-9.24,9.24v126.14c0,7.38,8.23,11.79,14.37,7.69l19.29-12.87c4.08-2.72,9.58-1.78,12.52,2.15l7.83,10.44c3.7,4.93,11.09,4.93,14.79,0l5.68-7.58c3.7-4.93,11.09-4.93,14.79,0l5.68,7.58c3.7,4.93,11.09,4.93,14.79,0l5.68-7.58c3.7-4.93,11.09-4.93,14.79,0l5.68,7.58c3.7,4.93,11.09,4.93,14.79,0l5.68-7.58c3.7-4.93,11.09-4.93,14.79,0l5.68,7.58c3.7,4.93,11.09,4.93,14.79,0l7.83-10.44c2.94-3.93,8.44-4.87,12.52-2.15l19.29,12.87c6.14,4.1,14.37-.31,14.37-7.69v-126.14c0-5.1-4.14-9.24-9.24-9.24ZM180.83,188.5h26.33c3.65,0,6.79.68,9.4,2.04,2.62,1.36,4.63,3.19,6.05,5.48,1.42,2.29,2.13,4.88,2.13,7.77,0,3.82-1.32,7-3.97,9.57-.87.84-1.87,1.58-2.99,2.21,1.62.81,3.04,1.8,4.26,2.98,3,2.92,4.5,6.58,4.5,11,0,3.22-.82,6.12-2.45,8.71-1.64,2.59-3.94,4.61-6.91,6.05-2.97,1.44-6.47,2.17-10.51,2.17h-25.84v-57.97ZM121.96,188.5h14.64v35.89c0,2.07.45,3.86,1.35,5.36.9,1.5,2.13,2.64,3.68,3.43,1.55.79,3.28,1.19,5.19,1.19s3.68-.4,5.15-1.19c1.47-.79,2.64-1.92,3.52-3.39.87-1.47,1.31-3.24,1.31-5.31v-35.98h14.72v34.83c0,4.69-1.02,8.83-3.07,12.43-2.04,3.6-4.92,6.45-8.63,8.54-3.71,2.1-8.04,3.15-13,3.15s-9.23-1.05-12.96-3.15c-3.73-2.1-6.65-4.96-8.75-8.59-2.1-3.62-3.15-7.78-3.15-12.47v-34.75ZM78.55,188.5h14.64v45.38h24.94v12.59h-39.57v-57.97ZM21.4,205.55c1.53-3.62,3.69-6.77,6.5-9.44,2.81-2.67,6.08-4.77,9.81-6.3,3.73-1.52,7.81-2.29,12.22-2.29s8.69.72,12.35,2.17c3.65,1.45,6.87,3.42,9.65,5.93l-9.81,9.89c-1.42-1.53-3.14-2.73-5.15-3.6-2.02-.87-4.36-1.31-7.03-1.31-2.29,0-4.43.4-6.42,1.19-1.99.79-3.68,1.92-5.07,3.39-1.39,1.47-2.48,3.24-3.27,5.31-.79,2.07-1.19,4.36-1.19,6.87s.39,4.96,1.19,7.03c.79,2.07,1.88,3.84,3.27,5.31,1.39,1.47,3.07,2.62,5.03,3.43s4.11,1.23,6.46,1.23c2.72,0,5.11-.42,7.15-1.27,2.04-.84,3.83-2.03,5.36-3.56l9.81,9.81c-2.84,2.51-6.04,4.48-9.61,5.93-3.57,1.44-7.75,2.17-12.55,2.17-4.42,0-8.5-.76-12.26-2.29-3.76-1.53-7.05-3.64-9.85-6.34-2.81-2.7-4.99-5.87-6.54-9.53-1.55-3.65-2.33-7.63-2.33-11.94s.76-8.19,2.29-11.81ZM228.13,276.35H17.52v-9.95h210.61v9.95Z"/>
      <path class="cls-1" d="M209.94,233.63c1.36-1.31,2.04-2.97,2.04-4.99,0-1.42-.31-2.63-.94-3.64-.63-1.01-1.49-1.81-2.58-2.41-1.09-.6-2.43-.9-4.01-.9h-9.24v13.9h9.4c2.18,0,3.95-.65,5.31-1.96Z"/>
      <path class="cls-1" d="M208.35,209.76c1.23-.98,1.84-2.45,1.84-4.42s-.61-3.52-1.84-4.5c-1.23-.98-2.79-1.47-4.7-1.47h-8.42v11.86h8.34c1.96,0,3.56-.49,4.78-1.47Z"/>
      <path class="cls-1" d="M145.82,82.06c-1.41-.72-2.96-1.08-4.66-1.08h-10.1v18.53h10.1c1.7,0,3.25-.34,4.66-1.03,1.41-.69,2.53-1.73,3.38-3.14.85-1.4,1.27-3.09,1.27-5.05s-.43-3.73-1.27-5.1c-.85-1.37-1.98-2.42-3.38-3.14Z"/>
      <path class="cls-1" d="M47.12,80.98h-9.61v15.89h9.61c2.81,0,4.98-.72,6.52-2.16,1.54-1.44,2.3-3.37,2.3-5.79s-.77-4.27-2.3-5.74c-1.54-1.47-3.71-2.21-6.52-2.21Z"/>
      <path class="cls-1" d="M231.28,3.42l-19.29,12.87c-4.08,2.72-9.58,1.78-12.52-2.15l-7.83-10.44c-3.7-4.93-11.09-4.93-14.79,0l-5.68,7.58c-3.7,4.93-11.09,4.93-14.79,0l-5.68-7.58c-3.7-4.93-11.09-4.93-14.79,0l-5.68,7.58c-3.7,4.93-11.09,4.93-14.79,0l-5.68-7.58c-3.7-4.93-11.09-4.93-14.79,0l-5.68,7.58c-3.7,4.93-11.09,4.93-14.79,0l-5.68-7.58c-3.7-4.93-11.09-4.93-14.79,0l-7.83,10.44c-2.94,3.93-8.44,4.87-12.52,2.15L14.37,3.42C8.23-.68,0,3.72,0,11.11v137.34c0,5.1,4.14,9.24,9.24,9.24h227.16c5.1,0,9.24-4.14,9.24-9.24V11.11c0-7.38-8.23-11.79-14.37-7.69ZM57.61,137.47l-19.07-28.14h-1.03v28.14h-17.55v-69.53h29.71c4.64,0,8.74.88,12.31,2.65,3.56,1.77,6.36,4.18,8.38,7.26,2.03,3.07,3.04,6.67,3.04,10.79s-1.03,7.81-3.09,10.88c-2.06,3.07-4.92,5.48-8.58,7.21-1.57.74-3.25,1.31-5.04,1.74l21.23,29h-20.3ZM101.15,137.47h-17.55v-69.53h17.55v69.53ZM164.69,102.26c-2.09,3.33-4.92,5.9-8.48,7.7-3.56,1.8-7.6,2.7-12.11,2.7h-13.04v24.81h-17.55v-69.53h30.6c4.51,0,8.55.88,12.11,2.65,3.56,1.77,6.39,4.31,8.48,7.65,2.09,3.33,3.14,7.35,3.14,12.06s-1.05,8.63-3.14,11.96ZM225.69,80.2l-31.8,42.56h30.92v14.71h-54.03v-12.26l31.71-42.56h-29.95v-14.71h53.15v12.26ZM225.69,47.72H19.96v-9.95h205.73v9.95Z"/>
    </g>
  </g>
</svg>